<?xml version="1.0" encoding="UTF-8" standalone="no"?>
<svg
   viewBox="0 0 512 512"
   version="1.1"
   id="svg4"
   sodipodi:docname="FaHandshakeSimple.svg"
   inkscape:version="1.1.2 (b8e25be833, 2022-02-05)"
   width="512"
   height="512"
   xmlns:inkscape="http://www.inkscape.org/namespaces/inkscape"
   xmlns:sodipodi="http://sodipodi.sourceforge.net/DTD/sodipodi-0.dtd"
   xmlns="http://www.w3.org/2000/svg"
   xmlns:svg="http://www.w3.org/2000/svg">
  <defs
     id="defs8" />
  <sodipodi:namedview
     id="namedview6"
     pagecolor="#ffffff"
     bordercolor="#cccccc"
     borderopacity="1"
     inkscape:pageshadow="0"
     inkscape:pageopacity="1"
     inkscape:pagecheckerboard="0"
     showgrid="false"
     inkscape:zoom="0.80371095"
     inkscape:cx="144.95261"
     inkscape:cy="401.88578"
     inkscape:window-width="1920"
     inkscape:window-height="1009"
     inkscape:window-x="-8"
     inkscape:window-y="-8"
     inkscape:window-maximized="1"
     inkscape:current-layer="svg4"
     inkscape:snap-bbox="true"
     inkscape:bbox-nodes="true"
     inkscape:snap-page="true" />
  <!--!Font Awesome Free 6.6.0 by @fontawesome - https://fontawesome.com License - https://fontawesome.com/license/free Copyright 2024 Fonticons, Inc.-->
  <g
     id="g909">
    <g
       id="g826"
       transform="matrix(0.8,0,0,0.8,0,51.214762)">
      <path
         fill="#000000"
         d="m 323.4,85.2 -96.8,78.4 c -16.1,13 -19.2,36.4 -7,53.1 12.9,17.8 38,21.3 55.3,7.8 l 99.3,-77.2 c 7,-5.4 17,-4.2 22.5,2.8 5.5,7 4.2,17 -2.8,22.5 L 373,188.8 550.2,352 H 592 c 26.5,0 48,-21.5 48,-48 V 176 c 0,-26.5 -21.5,-48 -48,-48 h -76 -4 -0.7 L 507.4,125.5 434.8,79 c -15.3,-9.8 -33.2,-15 -51.4,-15 -21.8,0 -43,7.5 -60,21.2 z m 22.8,124.4 -51.7,40.2 C 263,274.4 217.3,268 193.7,235.6 171.5,205.1 177.1,162.5 206.4,138.8 L 289.6,71.5 C 278,66.6 265.5,64.1 252.8,64.1 234,64 215.7,69.6 200,80 l -72,48 H 48 C 21.5,128 0,149.5 0,176 v 128 c 0,26.5 21.5,48 48,48 h 108.2 l 91.4,83.4 c 19.6,17.9 49.9,16.5 67.8,-3.1 5.5,-6.1 9.2,-13.2 11.1,-20.6 l 17,15.6 c 19.5,17.9 49.9,16.6 67.8,-2.9 4.5,-4.9 7.8,-10.6 9.9,-16.5 19.4,13 45.8,10.3 62.1,-7.5 17.9,-19.5 16.6,-49.9 -2.9,-67.8 z"
         id="path2" />
    </g>
  </g>
</svg>
