<?xml version="1.0" encoding="UTF-8" standalone="no"?>
<svg
   class="ionicon"
   viewBox="0 0 512 512"
   version="1.1"
   id="svg6"
   sodipodi:docname="IoDiamondSharp.svg"
   inkscape:version="1.1.2 (b8e25be833, 2022-02-05)"
   xmlns:inkscape="http://www.inkscape.org/namespaces/inkscape"
   xmlns:sodipodi="http://sodipodi.sourceforge.net/DTD/sodipodi-0.dtd"
   xmlns="http://www.w3.org/2000/svg"
   xmlns:svg="http://www.w3.org/2000/svg">
  <defs
     id="defs10" />
  <sodipodi:namedview
     id="namedview8"
     pagecolor="#ffffff"
     bordercolor="#cccccc"
     borderopacity="1"
     inkscape:pageshadow="0"
     inkscape:pageopacity="1"
     inkscape:pagecheckerboard="0"
     showgrid="false"
     inkscape:zoom="1.6074219"
     inkscape:cx="256"
     inkscape:cy="256.31106"
     inkscape:window-width="1920"
     inkscape:window-height="1009"
     inkscape:window-x="-8"
     inkscape:window-y="-8"
     inkscape:window-maximized="1"
     inkscape:current-layer="svg6" />
  <g
     id="g829">
    <path
       d="M35.42 188.21l207.75 269.46a16.17 16.17 0 0025.66 0l207.75-269.46a16.52 16.52 0 00.95-18.75L407.06 55.71A16.22 16.22 0 00393.27 48H118.73a16.22 16.22 0 00-13.79 7.71L34.47 169.46a16.52 16.52 0 00.95 18.75zM48 176h416"
       fill="none"
       stroke="currentColor"
       stroke-linecap="round"
       stroke-linejoin="round"
       stroke-width="32"
       id="path2" />
    <path
       fill="none"
       stroke="currentColor"
       stroke-linecap="round"
       stroke-linejoin="round"
       stroke-width="32"
       d="M400 64l-48 112-96-128M112 64l48 112 96-128M256 448l-96-272M256 448l96-272"
       id="path4" />
  </g>
</svg>
