<?xml version="1.0" encoding="UTF-8" standalone="no"?>
<svg
   viewBox="0 0 24 24"
   fill="currentColor"
   version="1.1"
   id="svg4"
   sodipodi:docname="RiParentFill.svg"
   inkscape:version="1.1.2 (b8e25be833, 2022-02-05)"
   xmlns:inkscape="http://www.inkscape.org/namespaces/inkscape"
   xmlns:sodipodi="http://sodipodi.sourceforge.net/DTD/sodipodi-0.dtd"
   xmlns="http://www.w3.org/2000/svg"
   xmlns:svg="http://www.w3.org/2000/svg">
  <defs
     id="defs8" />
  <sodipodi:namedview
     id="namedview6"
     pagecolor="#ffffff"
     bordercolor="#cccccc"
     borderopacity="1"
     inkscape:pageshadow="0"
     inkscape:pageopacity="1"
     inkscape:pagecheckerboard="0"
     showgrid="false"
     inkscape:zoom="34.291667"
     inkscape:cx="12"
     inkscape:cy="12.014581"
     inkscape:window-width="1920"
     inkscape:window-height="1009"
     inkscape:window-x="-8"
     inkscape:window-y="-8"
     inkscape:window-maximized="1"
     inkscape:current-layer="svg4" />
  <g
     id="g826">
    <path
       d="M7 11C4.51472 11 2.5 8.98528 2.5 6.5C2.5 4.01472 4.51472 2 7 2C9.48528 2 11.5 4.01472 11.5 6.5C11.5 8.98528 9.48528 11 7 11ZM17.5 15C15.2909 15 13.5 13.2091 13.5 11C13.5 8.79086 15.2909 7 17.5 7C19.7091 7 21.5 8.79086 21.5 11C21.5 13.2091 19.7091 15 17.5 15ZM17.5 16C19.9853 16 22 18.0147 22 20.5V21H13V20.5C13 18.0147 15.0147 16 17.5 16ZM7 12C9.76142 12 12 14.2386 12 17V21H2V17C2 14.2386 4.23858 12 7 12Z"
       id="path2" />
  </g>
</svg>
