<?xml version="1.0" encoding="UTF-8" standalone="no"?>
<svg
   viewBox="0 0 512 512"
   fill="currentColor"
   version="1.1"
   id="svg4"
   sodipodi:docname="RiParentFill.svg"
   inkscape:version="1.1.2 (b8e25be833, 2022-02-05)"
   width="512"
   height="512"
   xmlns:inkscape="http://www.inkscape.org/namespaces/inkscape"
   xmlns:sodipodi="http://sodipodi.sourceforge.net/DTD/sodipodi-0.dtd"
   xmlns="http://www.w3.org/2000/svg"
   xmlns:svg="http://www.w3.org/2000/svg">
  <defs
     id="defs8" />
  <sodipodi:namedview
     id="namedview6"
     pagecolor="#ffffff"
     bordercolor="#cccccc"
     borderopacity="1"
     inkscape:pageshadow="0"
     inkscape:pageopacity="1"
     inkscape:pagecheckerboard="0"
     showgrid="false"
     inkscape:zoom="0.5358073"
     inkscape:cx="-254.75577"
     inkscape:cy="3.7326852"
     inkscape:window-width="1920"
     inkscape:window-height="1009"
     inkscape:window-x="-8"
     inkscape:window-y="-8"
     inkscape:window-maximized="1"
     inkscape:current-layer="svg4"
     inkscape:snap-page="true" />
  <g
     id="g824">
    <g
       id="g826"
       transform="scale(21.333333)">
      <path
         d="M 7,11 C 4.51472,11 2.5,8.98528 2.5,6.5 2.5,4.01472 4.51472,2 7,2 9.48528,2 11.5,4.01472 11.5,6.5 11.5,8.98528 9.48528,11 7,11 Z m 10.5,4 c -2.2091,0 -4,-1.7909 -4,-4 0,-2.20914 1.7909,-4 4,-4 2.2091,0 4,1.79086 4,4 0,2.2091 -1.7909,4 -4,4 z m 0,1 c 2.4853,0 4.5,2.0147 4.5,4.5 V 21 H 13 V 20.5 C 13,18.0147 15.0147,16 17.5,16 Z M 7,12 c 2.76142,0 5,2.2386 5,5 v 4 H 2 v -4 c 0,-2.7614 2.23858,-5 5,-5 z"
         id="path2" />
    </g>
  </g>
</svg>
