<?xml version="1.0" encoding="UTF-8" standalone="no"?>
<svg
   width="88.838524pc"
   height="41.607059pc"
   viewBox="0 0 1421.4163 665.71286"
   id="svg2"
   version="1.1"
   inkscape:version="1.2.2 (b0a8486541, 2022-12-01)"
   sodipodi:docname="court.svg"
   xml:space="preserve"
   xmlns:inkscape="http://www.inkscape.org/namespaces/inkscape"
   xmlns:sodipodi="http://sodipodi.sourceforge.net/DTD/sodipodi-0.dtd"
   xmlns="http://www.w3.org/2000/svg"
   xmlns:svg="http://www.w3.org/2000/svg"
   xmlns:rdf="http://www.w3.org/1999/02/22-rdf-syntax-ns#"
   xmlns:cc="http://creativecommons.org/ns#"
   xmlns:dc="http://purl.org/dc/elements/1.1/"><defs
     id="defs4"><inkscape:path-effect
       effect="bspline"
       id="path-effect361"
       is_visible="true"
       lpeversion="1"
       weight="33.333333"
       steps="2"
       helper_size="0"
       apply_no_weight="true"
       apply_with_weight="true"
       only_selected="false" /><inkscape:path-effect
       effect="bspline"
       id="path-effect822"
       is_visible="true"
       lpeversion="1"
       weight="33.333333"
       steps="2"
       helper_size="0"
       apply_no_weight="true"
       apply_with_weight="true"
       only_selected="false" /><inkscape:path-effect
       effect="bspline"
       id="path-effect569"
       is_visible="true"
       lpeversion="1"
       weight="33.333333"
       steps="2"
       helper_size="0"
       apply_no_weight="true"
       apply_with_weight="true"
       only_selected="false" /><inkscape:path-effect
       effect="bspline"
       id="path-effect565"
       is_visible="true"
       lpeversion="1"
       weight="33.333333"
       steps="2"
       helper_size="0"
       apply_no_weight="true"
       apply_with_weight="true"
       only_selected="false" /><inkscape:path-effect
       effect="bspline"
       id="path-effect465"
       is_visible="true"
       lpeversion="1"
       weight="33.333333"
       steps="2"
       helper_size="0"
       apply_no_weight="true"
       apply_with_weight="true"
       only_selected="false" /><inkscape:path-effect
       effect="bspline"
       id="path-effect6862"
       is_visible="true"
       lpeversion="1"
       weight="33.333333"
       steps="2"
       helper_size="0"
       apply_no_weight="true"
       apply_with_weight="true"
       only_selected="false" /><inkscape:path-effect
       effect="bspline"
       id="path-effect6858"
       is_visible="true"
       lpeversion="1"
       weight="33.333333"
       steps="2"
       helper_size="0"
       apply_no_weight="true"
       apply_with_weight="true"
       only_selected="false" /><inkscape:path-effect
       effect="bspline"
       id="path-effect6846"
       is_visible="true"
       lpeversion="1"
       weight="33.333333"
       steps="2"
       helper_size="0"
       apply_no_weight="true"
       apply_with_weight="true"
       only_selected="false" /><inkscape:path-effect
       effect="bspline"
       id="path-effect6789"
       is_visible="true"
       lpeversion="1"
       weight="33.333333"
       steps="2"
       helper_size="0"
       apply_no_weight="true"
       apply_with_weight="true"
       only_selected="false" /></defs><sodipodi:namedview
     id="base"
     pagecolor="#ffffff"
     bordercolor="#3bff48"
     borderopacity="1"
     inkscape:pageopacity="0"
     inkscape:pageshadow="2"
     inkscape:zoom="0.74643855"
     inkscape:cx="675.87613"
     inkscape:cy="333.58406"
     inkscape:document-units="in"
     inkscape:current-layer="g4158"
     showgrid="true"
     units="pc"
     inkscape:showpageshadow="false"
     showguides="false"
     inkscape:window-width="1920"
     inkscape:window-height="1008"
     inkscape:window-x="1920"
     inkscape:window-y="35"
     inkscape:window-maximized="1"
     objecttolerance="10000"
     inkscape:snap-bbox="true"
     guidetolerance="10000"
     inkscape:object-nodes="true"
     inkscape:snap-nodes="true"
     inkscape:bbox-paths="false"
     inkscape:bbox-nodes="false"
     inkscape:snap-bbox-midpoints="false"
     inkscape:snap-others="false"
     fit-margin-top="0"
     fit-margin-left="0"
     fit-margin-right="0"
     fit-margin-bottom="0"
     inkscape:snap-grids="false"
     inkscape:snap-global="false"
     inkscape:snap-page="true"
     borderlayer="true"
     showborder="true"
     inkscape:document-rotation="0"
     inkscape:pagecheckerboard="0"
     inkscape:lockguides="true"
     inkscape:deskcolor="#d1d1d1" /><metadata
     id="metadata7"><rdf:RDF><cc:Work
         rdf:about=""><dc:format>image/svg+xml</dc:format><dc:type
           rdf:resource="http://purl.org/dc/dcmitype/StillImage" /></cc:Work></rdf:RDF></metadata><g
     inkscape:label="Layer 1"
     inkscape:groupmode="layer"
     id="layer1"
     transform="translate(2486.0554,4178.0652)"><g
       id="g4158"
       transform="matrix(2,0,0,2,-1800,-1412.3623)"><rect
         style="fill:#ffffff;stroke:none;stroke-width:5.00001;stroke-linecap:round;stroke-dasharray:20.0001, 20.0001"
         id="rect521"
         width="710.70813"
         height="157.8562"
         x="-343.02771"
         y="-1364.9073" /><rect
         style="fill:#000000;stroke:none;stroke-width:6.672;stroke-linecap:round"
         id="rect358-3-6"
         width="710.70807"
         height="157.85643"
         x="-343.02771"
         y="-1207.8514" /><g
         class=""
         id="g469"
         transform="matrix(0.32352878,0,0,0.32352878,-49.042779,-1208.5245)"
         style="fill:#ffffff;fill-opacity:1;stroke-width:1.54546"><path
           d="m 926.05514,65.000233 c -4.37,0 -8.74,0.485 -13,1.469 v 84.530997 h 26 V 66.469233 a 57.805,57.805 0 0 0 -13,-1.469 z m -31,9.354 c -13.982,9.663 -24,27.097997 -24,53.645997 v 23 h 24 z m 62,0 v 76.645997 h 24 v -23 c 0,-26.548 -10.018,-43.982997 -24,-53.645997 z m 38.176,26.147997 c 2.458,8.281 3.824,17.46 3.824,27.498 v 137 h -127.77 l 230.76996,225 h 186 v -106 z m -124.176,68.498 v 78 h 24 v -78 z m 42,0 v 78 h 26 v -78 z m 44,0 v 78 h 24 v -78 z"
           fill="#000000"
           fill-opacity="1"
           id="path467"
           style="fill:#ffffff;fill-opacity:1;stroke-width:1.54546" /></g><rect
         style="fill:#d5e5ff;stroke:none;stroke-width:6.672;stroke-linecap:round"
         id="rect358-3-6-0"
         width="710.70807"
         height="174.99998"
         x="-343.02771"
         y="-1382.8514" /><g
         class=""
         id="g4"
         transform="matrix(0.28004518,0,0,0.28004518,178.2295,-1369.1301)"
         style="stroke-width:1.78543"><path
           d="m 254.47,53.094 c 0,0 -4.808,37.12 -49.5,49.5 -44.695,12.38 -129.282,0 -129.282,0 l -14.345,13.186 8.187,9.157 -1.093,2.876 L 16.594,265.125 16,266.72 v 1.717 c 0,18.897 8.253,34.243 20.344,44 12.09,9.758 27.563,14.31 42.937,14.313 15.376,0.003 30.878,-4.556 42.97,-14.313 12.092,-9.756 20.344,-25.094 20.344,-44 v -1.843 L 141.907,264.906 86.97,130.28 c 23.946,-3.003 80.866,-8.54 115.5,1.532 23.064,6.71 36.151,20.345 43.436,31.97 l -35.126,190.686 21.407,30.31 c -17.75,7.75 -32.593,24.84 -37.562,51.345 -56.076,6.195 -95.47,20.74 -95.47,37.688 h 311.876 c 0,-16.947 -39.392,-31.493 -95.467,-37.688 -4.91,-26.6 -19.57,-44.112 -37.188,-51.906 l 21,-29.75 L 264,162.28 c 7.457,-11.275 20.388,-24.045 42.47,-30.468 34.955,-10.167 92.615,-4.42 116.155,-1.437 l -50.875,134.75 -0.625,1.594 v 1.717 c 0,18.897 8.253,34.243 20.344,44 12.09,9.758 27.593,14.31 42.967,14.313 15.375,0.003 30.877,-4.556 42.97,-14.313 12.09,-9.756 20.343,-25.094 20.343,-44 v -1.843 L 497.061,264.905 441,127.562 l -0.938,-2.28 8.782,-8.438 -15.594,-14.25 c 0,0 -84.556,12.38 -129.25,0 -44.694,-12.38 -49.53,-49.5 -49.53,-49.5 z M 77.53,156.656 121.75,265.031 H 36.594 L 77.53,156.657 Z m 355.158,0 44.218,108.375 H 391.72 l 40.967,-108.374 z"
           fill="#000000"
           fill-opacity="1"
           id="path2"
           style="stroke-width:3.00464" /></g><g
         id="g597" /><g
         id="g4546"
         transform="matrix(1.7904799,0,0,1.1122383,987.19986,-333.31297)"
         style="fill:#b3b3b3" /><text
         xml:space="preserve"
         style="font-style:normal;font-variant:normal;font-weight:normal;font-stretch:normal;font-size:66.6668px;line-height:1.25;font-family:FreeSans;-inkscape-font-specification:'FreeSans, Normal';font-variant-ligatures:normal;font-variant-caps:normal;font-variant-numeric:normal;font-variant-east-asian:normal;fill:#ffffff;fill-opacity:1;stroke:none;stroke-width:0.500001"
         x="-325.34027"
         y="-1105.7534"
         id="text3823-0"><tspan
           sodipodi:role="line"
           id="tspan3821-7"
           style="font-style:normal;font-variant:normal;font-weight:normal;font-stretch:normal;font-size:66.6668px;font-family:FreeSans;-inkscape-font-specification:'FreeSans, Normal';font-variant-ligatures:normal;font-variant-caps:normal;font-variant-numeric:normal;font-variant-east-asian:normal;fill:#ffffff;fill-opacity:1;stroke:none;stroke-width:0.500001"
           x="-325.34027"
           y="-1105.7534">Dungeon</tspan></text><text
         xml:space="preserve"
         style="font-style:normal;font-variant:normal;font-weight:bold;font-stretch:normal;font-size:66.6667px;line-height:1.25;font-family:FreeSans;-inkscape-font-specification:'FreeSans, Bold';font-variant-ligatures:normal;font-variant-caps:normal;font-variant-numeric:normal;font-variant-east-asian:normal;fill:#000000;fill-opacity:1;stroke:none;stroke-width:2.5;stroke-dasharray:none"
         x="-322.67361"
         y="-1262.0028"
         id="text3823"><tspan
           sodipodi:role="line"
           id="tspan3821"
           style="font-style:normal;font-variant:normal;font-weight:bold;font-stretch:normal;font-size:66.6667px;font-family:FreeSans;-inkscape-font-specification:'FreeSans, Bold';font-variant-ligatures:normal;font-variant-caps:normal;font-variant-numeric:normal;font-variant-east-asian:normal;fill:#000000;stroke:none;stroke-width:2.5;stroke-dasharray:none"
           x="-322.67361"
           y="-1262.0028">Trial</tspan></text></g></g></svg>
