<?xml version="1.0" encoding="UTF-8" standalone="no"?>
<svg
   width="1.3333343in"
   height="1.3333343in"
   viewBox="0 0 120.00008 120.00008"
   id="svg2"
   version="1.1"
   inkscape:version="1.2.2 (b0a8486541, 2022-12-01)"
   sodipodi:docname="10.svg"
   xmlns:inkscape="http://www.inkscape.org/namespaces/inkscape"
   xmlns:sodipodi="http://sodipodi.sourceforge.net/DTD/sodipodi-0.dtd"
   xmlns="http://www.w3.org/2000/svg"
   xmlns:svg="http://www.w3.org/2000/svg"
   xmlns:rdf="http://www.w3.org/1999/02/22-rdf-syntax-ns#"
   xmlns:cc="http://creativecommons.org/ns#"
   xmlns:dc="http://purl.org/dc/elements/1.1/">
  <defs
     id="defs4" />
  <sodipodi:namedview
     id="base"
     pagecolor="#ffffff"
     bordercolor="#666666"
     borderopacity="1.0"
     inkscape:pageopacity="0.0"
     inkscape:pageshadow="2"
     inkscape:zoom="6.5312457"
     inkscape:cx="26.564611"
     inkscape:cy="43.177062"
     inkscape:document-units="in"
     inkscape:current-layer="g20"
     showgrid="true"
     units="in"
     inkscape:showpageshadow="false"
     showguides="false"
     inkscape:window-width="1920"
     inkscape:window-height="1008"
     inkscape:window-x="1920"
     inkscape:window-y="35"
     inkscape:window-maximized="1"
     objecttolerance="10000"
     inkscape:snap-bbox="true"
     guidetolerance="10000"
     inkscape:object-nodes="true"
     fit-margin-top="0"
     fit-margin-left="0"
     fit-margin-right="0"
     fit-margin-bottom="0"
     inkscape:bbox-nodes="false"
     inkscape:document-rotation="0"
     inkscape:snap-bbox-midpoints="true"
     inkscape:pagecheckerboard="0"
     inkscape:deskcolor="#d1d1d1"
     inkscape:snap-global="false" />
  <metadata
     id="metadata7">
    <rdf:RDF>
      <cc:Work
         rdf:about="">
        <dc:format>image/svg+xml</dc:format>
        <dc:type
           rdf:resource="http://purl.org/dc/dcmitype/StillImage" />
      </cc:Work>
    </rdf:RDF>
  </metadata>
  <g
     inkscape:label="Layer 1"
     inkscape:groupmode="layer"
     id="layer1"
     transform="translate(50.877483,-792.00335)">
    <g
       id="g20"
       transform="matrix(0.7,0,0,0.7,15,300.70865)">
      <circle
         style="fill:#ffd200;stroke:#000000;stroke-width:17.8715;stroke-linecap:round;fill-opacity:1"
         id="path3295"
         cx="-8.3963528"
         cy="787.5639"
         r="76.778587" />
      <g
         aria-label="10"
         id="text6201"
         style="font-size:106.44px;line-height:1.25;font-family:FreeSans;-inkscape-font-specification:FreeSans;stroke-width:1.33929">
        <path
           d="m -42.829683,770.32061 h -16.711081 v -6.70572 q 10.85688,-1.38372 14.156521,-3.83184 3.29964,-2.44812 5.74776,-11.1762 h 6.17352 v 75.46596 h -9.36672 z"
           id="path6203" />
        <path
           d="m -6.6401095,787.56389 q 0,-9.47316 1.5966001,-16.71108 1.5966,-7.23792 4.04472006,-11.28264 2.44812004,-4.15116 5.85420014,-6.70572 3.4060801,-2.55456 6.4928402,-3.40608 3.1932,-0.85152 6.70572,-0.85152 24.694081,0 24.694081,39.59568 0,18.627 -6.3864,28.52592 -6.279961,9.79248 -18.307681,9.79248 -12.1341602,0 -18.41412032,-9.89892 -6.27996018,-10.00536 -6.27996018,-29.05812 z m 39.8085605,-0.21288 q 0,-30.44184 -15.11448,-30.44184 -15.1144802,0 -15.1144802,30.76116 0,31.08048 14.9016002,31.08048 7.87656,0 11.60196,-7.66368 3.7254,-7.66368 3.7254,-23.73612 z"
           id="path6205" />
      </g>
    </g>
  </g>
</svg>
