<?xml version="1.0" encoding="UTF-8" standalone="no"?>
<svg
   width="1.3333343in"
   height="1.3333343in"
   viewBox="0 0 120.00008 120.00008"
   id="svg2"
   version="1.1"
   inkscape:version="1.2.2 (b0a8486541, 2022-12-01)"
   sodipodi:docname="25.svg"
   xmlns:inkscape="http://www.inkscape.org/namespaces/inkscape"
   xmlns:sodipodi="http://sodipodi.sourceforge.net/DTD/sodipodi-0.dtd"
   xmlns="http://www.w3.org/2000/svg"
   xmlns:svg="http://www.w3.org/2000/svg"
   xmlns:rdf="http://www.w3.org/1999/02/22-rdf-syntax-ns#"
   xmlns:cc="http://creativecommons.org/ns#"
   xmlns:dc="http://purl.org/dc/elements/1.1/">
  <defs
     id="defs4" />
  <sodipodi:namedview
     id="base"
     pagecolor="#ffffff"
     bordercolor="#666666"
     borderopacity="1.0"
     inkscape:pageopacity="0.0"
     inkscape:pageshadow="2"
     inkscape:zoom="6.5312457"
     inkscape:cx="58.641187"
     inkscape:cy="51.75123"
     inkscape:document-units="in"
     inkscape:current-layer="g20"
     showgrid="true"
     units="in"
     inkscape:showpageshadow="false"
     showguides="false"
     inkscape:window-width="1920"
     inkscape:window-height="1008"
     inkscape:window-x="1920"
     inkscape:window-y="35"
     inkscape:window-maximized="1"
     objecttolerance="10000"
     inkscape:snap-bbox="true"
     guidetolerance="10000"
     inkscape:object-nodes="true"
     fit-margin-top="0"
     fit-margin-left="0"
     fit-margin-right="0"
     fit-margin-bottom="0"
     inkscape:bbox-nodes="false"
     inkscape:document-rotation="0"
     inkscape:snap-bbox-midpoints="true"
     inkscape:pagecheckerboard="0"
     inkscape:deskcolor="#d1d1d1"
     inkscape:snap-global="false" />
  <metadata
     id="metadata7">
    <rdf:RDF>
      <cc:Work
         rdf:about="">
        <dc:format>image/svg+xml</dc:format>
        <dc:type
           rdf:resource="http://purl.org/dc/dcmitype/StillImage" />
      </cc:Work>
    </rdf:RDF>
  </metadata>
  <g
     inkscape:label="Layer 1"
     inkscape:groupmode="layer"
     id="layer1"
     transform="translate(50.877483,-792.00335)">
    <g
       id="g20"
       transform="matrix(0.7,0,0,0.7,15,300.70865)">
      <ellipse
         style="fill:#ffd200;fill-opacity:1;stroke:#000000;stroke-width:10.7144;stroke-linecap:round;stroke-dasharray:none"
         id="path3295"
         cx="-8.3963404"
         cy="787.5639"
         rx="80.357201"
         ry="80.357208" />
      <g
         aria-label="25"
         id="text693"
         style="font-size:104.355px;line-height:1.25;font-family:FreeSans;-inkscape-font-specification:'FreeSans, Normal';stroke-width:2.00301">
        <path
           d="m -60.73037,775.0413 q 0.730485,-25.67133 24.419071,-25.67133 10.539855,0 17.11422,6.05259 6.574366,6.05259 6.574366,15.65325 0,13.77486 -15.653251,22.33197 l -10.4355,5.63517 q -6.783075,3.65243 -9.705016,7.09614 -2.92194,3.44372 -3.652425,8.13969 h 38.924417 v 9.07889 H -62.40005 q 0.62613,-12.20954 4.904685,-18.7839 4.278555,-6.67872 15.861961,-13.25309 l 9.60066,-5.42646 q 10.01808,-5.73953 10.01808,-14.6097 0,-5.94824 -4.1742,-9.91373 -4.1742,-3.96549 -10.4355,-3.96549 -13.879216,0 -14.922766,17.636 z"
           id="path1911" />
        <path
           d="m 41.746216,749.36997 v 9.07888 H 10.96149 l -2.9219399,20.66229 q 6.1569449,-4.48726 13.6705059,-4.48726 10.64421,0 17.218575,6.88743 6.67872,6.78307 6.67872,17.74035 0,11.68776 -7.09614,19.09697 -7.09614,7.4092 -18.262126,7.4092 -4.278555,0 -7.93098,-0.93919 -3.5480699,-0.9392 -5.948235,-2.19146 -2.2958101,-1.35661 -4.2785551,-3.44371 -1.87839008,-2.19146 -2.92194011,-3.75678 -0.93919499,-1.66968 -1.87839009,-4.06985 -0.83484,-2.50452 -1.04355,-3.44371 -0.20871,-0.9392 -0.521775,-2.71323 H 4.9089 q 3.2350051,12.41824 15.131475,12.41824 7.513561,0 11.792116,-4.59162 4.38291,-4.59162 4.38291,-12.5226 0,-8.24404 -4.38291,-12.94002 -4.38291,-4.80033 -11.792116,-4.80033 -4.278555,0 -7.30485,1.56532 -3.0262949,1.46097 -6.2613,5.32211 h -8.4527553 l 5.5308152,-40.28103 z"
           id="path1913" />
      </g>
    </g>
  </g>
</svg>
