<?xml version="1.0" encoding="UTF-8" standalone="no"?>
<svg
   width="1.3333343in"
   height="1.3333343in"
   viewBox="0 0 120.00008 120.00008"
   id="svg2"
   version="1.1"
   inkscape:version="1.2.2 (b0a8486541, 2022-12-01)"
   sodipodi:docname="5.svg"
   xmlns:inkscape="http://www.inkscape.org/namespaces/inkscape"
   xmlns:sodipodi="http://sodipodi.sourceforge.net/DTD/sodipodi-0.dtd"
   xmlns="http://www.w3.org/2000/svg"
   xmlns:svg="http://www.w3.org/2000/svg"
   xmlns:rdf="http://www.w3.org/1999/02/22-rdf-syntax-ns#"
   xmlns:cc="http://creativecommons.org/ns#"
   xmlns:dc="http://purl.org/dc/elements/1.1/">
  <defs
     id="defs4" />
  <sodipodi:namedview
     id="base"
     pagecolor="#ffffff"
     bordercolor="#666666"
     borderopacity="1.0"
     inkscape:pageopacity="0.0"
     inkscape:pageshadow="2"
     inkscape:zoom="6.5312457"
     inkscape:cx="59.789513"
     inkscape:cy="64.000042"
     inkscape:document-units="in"
     inkscape:current-layer="g20"
     showgrid="true"
     units="in"
     inkscape:showpageshadow="false"
     showguides="false"
     inkscape:window-width="1920"
     inkscape:window-height="1008"
     inkscape:window-x="1920"
     inkscape:window-y="35"
     inkscape:window-maximized="1"
     objecttolerance="10000"
     inkscape:snap-bbox="true"
     guidetolerance="10000"
     inkscape:object-nodes="true"
     fit-margin-top="0"
     fit-margin-left="0"
     fit-margin-right="0"
     fit-margin-bottom="0"
     inkscape:bbox-nodes="false"
     inkscape:document-rotation="0"
     inkscape:snap-bbox-midpoints="true"
     inkscape:pagecheckerboard="0"
     inkscape:deskcolor="#d1d1d1"
     inkscape:snap-global="false" />
  <metadata
     id="metadata7">
    <rdf:RDF>
      <cc:Work
         rdf:about="">
        <dc:format>image/svg+xml</dc:format>
        <dc:type
           rdf:resource="http://purl.org/dc/dcmitype/StillImage" />
      </cc:Work>
    </rdf:RDF>
  </metadata>
  <g
     inkscape:label="Layer 1"
     inkscape:groupmode="layer"
     id="layer1"
     transform="translate(50.877483,-792.00335)">
    <g
       id="g20"
       transform="matrix(0.7,0,0,0.7,15,300.70865)">
      <circle
         style="fill:#ffd200;stroke:#000000;stroke-width:17.8715;stroke-linecap:round;fill-opacity:1"
         id="path3295"
         cx="-8.3963528"
         cy="787.5639"
         r="76.778587" />
      <g
         aria-label="5"
         id="text693"
         style="font-weight:bold;font-size:104.355px;line-height:1.25;font-family:FreeSans;-inkscape-font-specification:'FreeSans Bold';stroke-width:2.00301"
         transform="translate(76.39216,41.106449)">
        <g
           aria-label="5"
           id="text4369"
           style="font-weight:normal;-inkscape-font-specification:FreeSans;stroke-width:2.6826">
          <path
             d="m -63.708801,708.26352 v 9.07889 h -30.784726 l -2.92194,20.66229 q 6.156945,-4.48727 13.670505,-4.48727 10.644211,0 17.218576,6.88743 6.67872,6.78308 6.67872,17.74035 0,11.68777 -7.09614,19.09697 -7.09614,7.40921 -18.262126,7.40921 -4.278555,0 -7.93098,-0.9392 -3.54807,-0.93919 -5.948235,-2.19145 -2.295813,-1.35662 -4.278553,-3.44372 -1.87839,-2.19145 -2.92194,-3.75678 -0.9392,-1.66968 -1.87839,-4.06984 -0.83484,-2.50452 -1.04355,-3.44372 -0.20871,-0.93919 -0.52178,-2.71323 h 9.18324 q 3.235008,12.41825 15.131478,12.41825 7.513561,0 11.792116,-4.59162 4.38291,-4.59162 4.38291,-12.52261 0,-8.24404 -4.38291,-12.94002 -4.38291,-4.80033 -11.792116,-4.80033 -4.278555,0 -7.30485,1.56533 -3.026295,1.46097 -6.2613,5.3221 h -8.452758 l 5.53082,-40.28103 z"
             id="path4371" />
        </g>
      </g>
    </g>
  </g>
</svg>
