<?xml version="1.0" encoding="UTF-8" standalone="no"?>
<svg
   width="469.30511"
   height="341.33301"
   viewBox="0 0 469.30511 341.333"
   fill="currentColor"
   class="icon icon-tabler icons-tabler-filled icon-tabler-eye"
   version="1.1"
   id="svg22481"
   sodipodi:docname="eye.svg"
   inkscape:version="1.2.2 (b0a8486541, 2022-12-01)"
   xmlns:inkscape="http://www.inkscape.org/namespaces/inkscape"
   xmlns:sodipodi="http://sodipodi.sourceforge.net/DTD/sodipodi-0.dtd"
   xmlns="http://www.w3.org/2000/svg"
   xmlns:svg="http://www.w3.org/2000/svg">
  <defs
     id="defs22485" />
  <sodipodi:namedview
     id="namedview22483"
     pagecolor="#ffffff"
     bordercolor="#666666"
     borderopacity="1.0"
     inkscape:showpageshadow="2"
     inkscape:pageopacity="0.0"
     inkscape:pagecheckerboard="0"
     inkscape:deskcolor="#d1d1d1"
     showgrid="false"
     inkscape:zoom="1.6328125"
     inkscape:cx="214.04784"
     inkscape:cy="156.17225"
     inkscape:window-width="1920"
     inkscape:window-height="1008"
     inkscape:window-x="1920"
     inkscape:window-y="35"
     inkscape:window-maximized="1"
     inkscape:current-layer="svg22481" />
  <path
     d="m 234.65979,0 c 91.51999,0 167.74399,51.818664 227.51999,152.61867 l 4.69334,8.08533 0.96,2.13333 0.64,1.77067 0.29866,1.17333 0.29867,1.74934 0.23467,2.13333 v 2.34667 l -0.29867,2.368 a 21.162666,21.162666 0 0 1 -0.55467,2.34666 l -0.832,2.304 -0.768,1.6 -0.34133,0.64 c -58.96533,103.168 -134.4,157.44 -225.17333,159.97867 l -6.67733,0.0853 c -93.78134,0 -171.456003,-54.37867 -231.8506694,-160.08533 a 21.333333,21.333333 0 0 1 0,-21.16267 C 63.203787,54.378664 140.87845,0 234.65979,0 Z m 0,106.66667 a 64,64 0 1 0 0,128 64,64 0 0 0 0,-128 z"
     id="path22477"
     style="stroke-width:21.3333" />
</svg>
