<?xml version="1.0" encoding="UTF-8" standalone="no"?>
<svg
   width="0.31600475in"
   height="0.22985277in"
   viewBox="0 0 28.440427 20.686748"
   id="svg2"
   version="1.1"
   inkscape:version="1.2.2 (b0a8486541, 2022-12-01)"
   sodipodi:docname="hourglass-white.svg"
   xmlns:inkscape="http://www.inkscape.org/namespaces/inkscape"
   xmlns:sodipodi="http://sodipodi.sourceforge.net/DTD/sodipodi-0.dtd"
   xmlns="http://www.w3.org/2000/svg"
   xmlns:svg="http://www.w3.org/2000/svg"
   xmlns:rdf="http://www.w3.org/1999/02/22-rdf-syntax-ns#"
   xmlns:cc="http://creativecommons.org/ns#"
   xmlns:dc="http://purl.org/dc/elements/1.1/">
  <defs
     id="defs4">
    <rect
       x="-12.69237"
       y="947.96295"
       width="135.24016"
       height="110.75703"
       id="rect12" />
    <rect
       x="-34.843777"
       y="892.00153"
       width="169.05022"
       height="137.57188"
       id="rect13" />
  </defs>
  <sodipodi:namedview
     id="base"
     pagecolor="#ffffff"
     bordercolor="#666666"
     borderopacity="1.0"
     inkscape:pageopacity="0.0"
     inkscape:pageshadow="2"
     inkscape:zoom="4.6407059"
     inkscape:cx="-1.1851645"
     inkscape:cy="10.12777"
     inkscape:document-units="in"
     inkscape:current-layer="g20"
     showgrid="true"
     units="in"
     inkscape:showpageshadow="false"
     showguides="false"
     inkscape:window-width="1920"
     inkscape:window-height="1008"
     inkscape:window-x="1920"
     inkscape:window-y="35"
     inkscape:window-maximized="1"
     objecttolerance="10000"
     inkscape:snap-bbox="true"
     guidetolerance="10000"
     inkscape:object-nodes="true"
     fit-margin-top="0"
     fit-margin-left="0"
     fit-margin-right="0"
     fit-margin-bottom="0"
     inkscape:bbox-nodes="true"
     inkscape:snap-global="false"
     inkscape:document-rotation="0"
     inkscape:pagecheckerboard="0"
     inkscape:deskcolor="#d1d1d1" />
  <metadata
     id="metadata7">
    <rdf:RDF>
      <cc:Work
         rdf:about="">
        <dc:format>image/svg+xml</dc:format>
        <dc:type
           rdf:resource="http://purl.org/dc/dcmitype/StillImage" />
      </cc:Work>
    </rdf:RDF>
  </metadata>
  <g
     inkscape:label="Layer 1"
     inkscape:groupmode="layer"
     id="layer1"
     transform="translate(0.96415329,-1042.0227)">
    <g
       id="g20"
       transform="matrix(0.7,0,0,0.7,15,300.70865)">
      <path
         d="m -2.4907185,1059.0201 c 7.9231659,0 14.5221115,4.4861 19.6971035,13.2127 l 0.406315,0.6999 0.08311,0.1847 0.05541,0.1533 0.02586,0.1016 0.02586,0.1515 0.02031,0.1846 v 0.2032 l -0.02586,0.205 a 1.8321168,1.8321168 0 0 1 -0.04802,0.2032 l -0.07203,0.1994 -0.06649,0.1385 -0.02955,0.055 c -5.104808,8.9316 -11.6354188,13.6301 -19.4939443,13.8499 l -0.5780775,0.01 c -8.1189372,0 -14.8434712,-4.7077 -20.0720222,-13.8591 a 1.846892,1.846892 0 0 1 0,-1.8321 c 5.228551,-9.1514 11.953085,-13.8591 20.0720222,-13.8591 z m 0,9.2345 a 5.5406773,5.5406773 0 1 0 0,11.0813 5.5406773,5.5406773 0 0 0 0,-11.0813 z"
         id="path22477"
         style="stroke-width:28.5714;fill:#ffffff" />
    </g>
  </g>
</svg>
