<?xml version="1.0" encoding="UTF-8"?>
<svg class="icon icon-tabler icons-tabler-outline icon-tabler-eye-question" width="24" height="24"
  fill="none" stroke="currentColor" stroke-linecap="round" stroke-linejoin="round" stroke-width="2"
  version="1.1" viewBox="0 0 24 24" xmlns="http://www.w3.org/2000/svg">
  <g
    id="g1095"
    transform="scale(21.333333)">
    <path d="M0 0h24v24H0z" fill="none" stroke="none" />
    <path d="m10 12a2 2 0 1 0 4 0 2 2 0 0 0-4 0" />
    <path
      d="m14.071 17.764a8.989 8.989 0 0 1-2.071 0.236c-3.6 0-6.6-2-9-6 2.4-4 5.4-6 9-6 3.346 0 6.173 1.727 8.482 5.182" />
    <path d="M19 22v.01" />
    <path d="m19 19a2.003 2.003 0 0 0 0.914-3.782 1.98 1.98 0 0 0-2.414 0.483" />
  </g>
</svg>